<svg width="1744" height="1719" viewBox="0 0 1744 1719" fill="none" xmlns="http://www.w3.org/2000/svg">
<path d="M1084.91 1072.72C985.844 1369.63 721.203 1461.32 581.271 1092.54C562.028 1041.83 612.342 1022.95 647.529 1000.63C671.631 985.348 684.292 972.093 682.824 958.426C675.896 893.951 645.903 714.572 645.903 714.572L642.852 708.793C642.852 708.793 643.583 707.173 640.712 710.038C637.72 713.025 630.819 744.214 603.622 744.214C579.238 744.214 554.483 733.314 542.636 657.886C538.349 630.589 540.782 559.025 570.989 546.102C583.472 540.763 594.988 538.854 606.222 545.263C617.456 551.671 593.26 523.357 718.209 419.232C799.427 351.549 927.717 341.629 979.484 353.057C1031.25 364.484 1083.02 389.824 1105.91 443.483C1133.69 508.593 1080.03 557.759 1091.82 706.042C1089.67 759.617 1092.74 877.198 945.314 916.607C917.313 924.093 926 965 968 975C1035 996 1084.96 1047.27 1084.96 1072.86" fill="white"/>
<path fill-rule="evenodd" clip-rule="evenodd" d="M1084.94 611.2L1085.1 609.806C1089.24 573.399 1093.26 538.118 1112.24 506.429C1118.7 510.85 1117.95 516.452 1115.93 521.643C1096.01 572.845 1097.84 626.04 1099.67 679.206C1099.83 683.863 1099.99 688.519 1100.14 693.174C1102.22 759.601 1085.65 819.988 1041.35 870.736C1025.98 888.348 1005.63 900.464 984.854 911.045C963.515 921.912 959.03 931.132 965.687 954.599C965.93 955.455 966.229 956.315 966.529 957.178C967.892 961.1 969.273 965.073 965.487 968.95C960.965 973.58 956.026 972.259 950.683 970.829C950.48 970.775 950.277 970.721 950.074 970.667C899.733 957.241 854.697 933.154 813.056 902.393C807.139 898.022 802.272 892.06 797.561 886.29L797.561 886.289L797.256 885.916C794.776 882.879 794.338 878.141 797.807 875.462C801.054 872.955 803.609 875.011 806.452 877.298C806.815 877.59 807.182 877.886 807.556 878.176C830.027 895.614 854.773 907.063 883.768 909.943C897.176 911.275 910.448 910.784 923.708 910.293H923.708H923.709C931.17 910.017 938.626 909.741 946.101 909.79C956.34 909.857 964.752 905.107 972.761 900.584C973.712 900.047 974.658 899.513 975.601 898.99C1003.45 883.545 1029.88 866.229 1047.84 838.331C1063.92 813.331 1073.67 786.1 1079.4 757.443C1086.65 721.27 1085.99 684.7 1085.32 647.621C1085.11 635.536 1084.89 623.397 1084.94 611.2ZM581.684 535.824C603.577 534.064 615.771 547.033 626.037 562.053C638.664 580.526 645.39 601.465 648.37 623.572C648.87 627.28 649.389 631.223 647.152 634.856C642.737 635.45 642.319 631.946 642.252 629.317C641.696 608.644 632.526 590.61 623.308 573.156C616.73 560.704 607.059 548.64 591.943 545.577C574.71 542.084 558.858 557.566 551.067 577.842C536.636 615.398 539.029 652.36 552.455 688.759C558.33 704.687 565.648 720.913 580.303 732.026C595.142 743.28 613.008 741.295 623.903 726.349C624.526 725.494 625.184 724.649 625.845 723.801L625.845 723.801L625.845 723.801C627.841 721.238 629.853 718.656 630.928 715.749C633.035 710.049 636.256 704.629 642.155 705.423C648.978 706.342 650.271 713.729 650.909 719.499C656.707 771.928 664.758 824.024 672.81 876.126L672.81 876.126C674.808 889.053 676.806 901.98 678.769 914.913C681.369 932.023 684.381 956.598 682.361 967.05C682.219 967.792 682.136 968.523 682.058 969.222C681.749 971.958 681.496 974.21 677.906 974.75C673.034 975.484 670.831 972.66 670.233 968.28C667.913 951.274 667.273 944.747 666.275 918.735C665.308 893.519 660.569 868.665 655.83 843.816L655.83 843.815C654.111 834.799 652.392 825.784 650.853 816.753C645.613 785.996 640.483 754.802 640.022 719.777C639.326 720.808 638.644 721.825 637.974 722.826C630.426 734.095 624.264 743.295 613.48 746.877C595.58 752.827 579.917 748.422 567.371 734.277C553.071 718.155 543.783 699.808 538.558 678.498C530.244 644.587 528.704 611.368 539.487 577.853C544.655 561.774 563.189 533.208 581.684 535.824ZM616.346 663.326C620.717 666.467 624.679 669.316 628.334 657.948C627.158 615.652 613.6 588.654 592.472 587.632C603.747 602.197 614.559 616.413 615.472 636.132C610.742 633.978 607.7 630.589 604.784 627.342C602.753 625.08 600.784 622.886 598.348 621.226C597.31 620.518 596.295 619.735 595.271 618.946C590.544 615.301 585.636 611.516 577.471 614.357C581.301 620.187 586.575 624.301 591.799 628.377C597.832 633.083 603.798 637.737 607.392 644.919C596.777 652.561 592.209 662.62 597.718 674.761C602.497 685.296 609.565 694 623.565 694.635C623.043 688.31 618.868 683.707 614.812 679.235C609.879 673.796 605.121 668.55 607.316 660.635C610.515 659.133 613.516 661.291 616.346 663.326Z" fill="black"/>
<path d="M1493.69 1605.15L185 1606C185 1606 257.935 1329.1 277.368 1297.34C296.801 1265.58 374.916 1158.61 374.053 1140.45C373.19 1122.29 375.543 1057.72 388.728 1032.16C401.914 1006.6 443.977 971.625 460.378 969.066C476.78 966.508 532.028 963.95 566.559 955.424C601.09 946.898 632.981 936.373 668.07 936.373C673.771 936.373 668.255 948.707 668.255 948.707C668.255 948.707 670.075 1069.58 833.059 1077.17C954.573 1082.82 994.825 960.973 994.825 960.973C994.825 960.973 968.122 937.509 976.229 936.822C1071.81 928.731 1121.98 949.88 1150.98 955.424C1177.74 960.54 1200.18 960.54 1226.95 979.298C1257.63 1000.81 1273.49 1049.47 1307.81 1124.06C1347.16 1209.57 1502.02 1469.09 1493.68 1605.71" fill="white"/>
<path fill-rule="evenodd" clip-rule="evenodd" d="M1183.72 1608.96C1182.98 1592.17 1182.61 1575.39 1182.24 1558.61C1181.43 1521.85 1180.62 1485.1 1175.82 1448.33C1171.42 1414.62 1166.36 1380.95 1160.82 1347.51C1151.72 1292.52 1139.5 1237.99 1127.22 1183.57C1122.99 1164.83 1115.73 1146.53 1107.93 1128.86C1102.24 1115.97 1097.47 1102.74 1092.7 1089.5C1087.24 1074.35 1081.77 1059.2 1074.93 1044.55C1073.73 1041.99 1072.22 1039.65 1070.67 1037.24L1070.67 1037.24C1067.77 1032.74 1064.7 1027.99 1063.17 1021.01C1015.7 1113.39 942.728 1161.29 839.906 1161.73C738.712 1162.17 663.834 1116.09 609.348 1032.93C600.724 1039.79 596.802 1049.62 593.228 1058.57L593.228 1058.57C592.78 1059.69 592.339 1060.8 591.894 1061.88C573.29 1107.26 555.836 1152.92 550.413 1202.49C547.278 1231.15 542.818 1259.78 538.365 1288.37L538.365 1288.37C537.779 1292.14 537.193 1295.9 536.61 1299.66C529.688 1344.35 523.662 1389.3 520.335 1434.5C516.106 1491.93 511.609 1549.33 506.932 1607.85C502.242 1608.96 497.852 1608.97 492.366 1608.97C495.889 1584.51 496.767 1559.59 497.567 1534.95C499.163 1485.79 504.855 1437.11 510.552 1388.39C512.116 1375.01 513.68 1361.64 515.16 1348.24C518.227 1320.49 522.262 1292.88 526.297 1265.27L526.297 1265.27C530.273 1238.07 534.249 1210.87 537.298 1183.53C542.152 1140 559.183 1099.26 577.207 1059.25L578.041 1057.4C588.466 1034.24 598.857 1011.16 615.56 991.586C628.476 976.453 643.077 962.968 660.407 952.951C674.31 944.915 678.857 946.635 683.542 961.871C693.108 992.978 709.824 1019.7 736.835 1037.88C779.603 1066.67 825.911 1079.68 878.187 1064.54C914.632 1053.98 944.77 1035.74 966.47 1004.98C974.872 993.072 982.463 980.323 984.994 965.364C983.105 964.65 981.244 963.97 979.41 963.299C975.082 961.717 970.9 960.188 966.837 958.393L966.786 958.371C963.84 957.069 960.061 955.401 961.636 951.035C962.855 947.655 965.755 945.199 969.519 945.715C1002.64 950.233 1034.03 957.363 1055.95 986.408C1076.44 1013.56 1091.42 1042.83 1103.27 1074.66C1105.77 1081.37 1108.29 1088.08 1110.82 1094.78C1123.38 1128.13 1135.93 1161.46 1145.18 1195.9C1148.83 1209.49 1151.58 1223.32 1154.34 1237.15L1154.34 1237.16L1154.34 1237.16C1155.51 1243.05 1156.68 1248.93 1157.92 1254.8C1159.58 1262.63 1161.34 1270.45 1163.09 1278.26L1163.09 1278.27C1167.13 1296.24 1171.17 1314.2 1174 1332.36C1175.94 1344.84 1178.08 1357.3 1180.22 1369.76L1180.22 1369.77C1186.31 1405.22 1192.41 1440.69 1194 1476.8C1194.79 1494.58 1196.1 1512.34 1197.42 1530.11L1197.42 1530.11L1197.42 1530.11C1198.53 1545.06 1199.63 1560.01 1200.43 1574.97C1200.86 1583.1 1200.03 1591.3 1199.17 1599.8V1599.8L1199.17 1599.81C1198.89 1602.58 1198.6 1605.39 1198.36 1608.24C1193.51 1608.86 1188.61 1609.1 1183.72 1608.96ZM998.567 975.455L998.565 975.46L998.565 975.46C990.682 993.729 982.808 1011.97 969.276 1027.24C934.977 1065.95 890.519 1083.65 839.864 1085.07C805.773 1086.03 772.303 1079.08 742.906 1060.4C714.299 1042.22 689.848 1020.12 677.87 987.108C677.438 985.917 677.028 984.696 676.615 983.467C674.677 977.696 672.675 971.732 667.968 967.664C654.777 970.638 651.264 978.8 653.417 990.358C653.768 992.24 654.032 994.151 654.296 996.062C654.842 1000.01 655.388 1003.96 656.701 1007.64C669.209 1042.67 693.63 1068.39 724.991 1087.17C749.672 1101.94 776.408 1111.76 805.842 1115.39C866.214 1122.82 922.392 1114.86 972.203 1078.03C1002.53 1055.6 1021.09 1025.95 1025.56 988.546C1027.33 973.695 1018.38 966.836 1000.88 970.104H1000.88C1000.11 971.886 999.337 973.671 998.567 975.455ZM637.275 991.076C657.285 1072.19 714.24 1111.1 791.016 1128.12C830.041 1137.87 867.023 1136.2 904.178 1126.68C945.52 1116.07 981.824 1097.68 1008.95 1064.3C1025.61 1043.8 1037.88 1021.13 1038.31 993.533C1053.31 1001.27 1054.85 1006.53 1044.81 1025.09C1022.32 1066.71 990.352 1100.21 948.149 1121.87C901.722 1145.71 851.78 1151.95 799.537 1144.18C745.36 1136.13 700.774 1110.87 661.766 1074.57C647.726 1061.5 637.134 1045.58 626.567 1029.7C624.315 1026.32 622.065 1022.93 619.782 1019.58C617.064 1015.59 618.871 1012.4 621.492 1009.35C625.004 1005.26 628.533 1001.18 632.205 996.938C633.862 995.023 635.548 993.075 637.275 991.076Z" fill="black"/>
<path fill-rule="evenodd" clip-rule="evenodd" d="M393.106 1608.96C397.615 1593.73 399.312 1577.95 401.012 1562.14L401.012 1562.14C401.866 1554.2 402.72 1546.26 403.931 1538.38C404.843 1532.43 405.728 1526.49 406.612 1520.54L406.613 1520.54C410.171 1496.62 413.728 1472.71 419.074 1449.02C420.61 1442.21 422.258 1435.43 423.907 1428.64L423.907 1428.64C427.102 1415.48 430.301 1402.31 432.696 1388.93C436.618 1366.14 443.448 1343.92 453.024 1322.83C467.928 1290.63 474.792 1256.81 475.301 1221.87C475.556 1204.41 477.769 1187.19 479.981 1169.96L479.982 1169.96C481.63 1157.13 483.278 1144.3 484.116 1131.37C485.698 1106.99 484.498 1082.86 483.009 1056.62C479.225 1059.64 475.58 1062.6 472.013 1065.49L472.009 1065.49C464.502 1071.58 457.343 1077.39 449.963 1082.91C407.128 1114.94 373.653 1155.31 345.072 1199.67C333.918 1216.98 324.576 1235.37 315.239 1253.74L315.239 1253.75C311.472 1261.16 307.707 1268.57 303.823 1275.91C287.851 1306.09 275.528 1337.64 263.566 1369.12C261.423 1374.76 259.259 1380.41 257.093 1386.05C239.252 1432.55 221.321 1479.28 214.3 1528.88C212.286 1543.11 208.368 1556.77 204.416 1570.56C200.91 1582.79 197.378 1595.11 195.123 1607.99C189.576 1608.96 184.348 1608.96 178 1608.96C178.925 1605.75 179.856 1602.54 180.788 1599.32L180.79 1599.32C189.247 1570.15 197.743 1540.84 202.068 1510.31C204.253 1494.88 208.755 1479.74 213.238 1464.66L213.24 1464.65C214.27 1461.19 215.3 1457.72 216.301 1454.26C220.723 1438.95 226.477 1424.1 232.236 1409.24C237.234 1396.34 242.236 1383.43 246.373 1370.2C251.281 1354.51 257.888 1339.33 264.491 1324.16C266.923 1318.57 269.354 1312.99 271.7 1307.38C288.367 1267.52 309.116 1229.63 330.77 1192.32L331.08 1191.78C338.453 1179.08 346.045 1166 357.137 1155.49C365.77 1147.32 366.271 1136.71 366.767 1126.18C366.956 1122.18 367.144 1118.2 367.776 1114.37C368.221 1111.67 368.659 1108.97 369.097 1106.26L369.097 1106.26C374.182 1074.88 379.289 1043.37 395.36 1015.47C412.127 986.359 439.917 970.246 472.457 962.439C496.002 956.756 520.011 953.149 544.201 951.658C554.163 951.05 563.945 947.921 573.752 944.783C579.023 943.097 584.302 941.408 589.62 940.107C594.651 938.876 599.664 937.537 604.677 936.198C623.765 931.097 642.864 925.994 663.066 926.863C663.419 926.879 663.776 926.891 664.134 926.903C668.209 927.039 672.379 927.178 673.042 932.29C673.703 937.387 670.175 938.036 666.502 938.711C665.842 938.832 665.178 938.954 664.532 939.103C650.533 942.319 636.553 945.615 622.572 948.911L622.57 948.912C596.13 955.146 569.69 961.379 543.131 967.067C531.567 969.544 519.601 970.308 507.68 971.069C504.725 971.258 501.772 971.446 498.829 971.661C490.321 972.281 482.197 973.373 475.091 977.941C500.897 993.833 516.072 1015.31 515.641 1045.9C515.386 1064 516.129 1082.08 516.872 1100.17V1100.17C517.852 1124.01 518.832 1147.85 517.523 1171.7C515.822 1202.77 512.247 1233.61 507.61 1264.47C504.918 1282.38 502.837 1300.42 500.756 1318.46C498.793 1335.47 496.832 1352.48 494.36 1369.36C491.889 1386.23 490.231 1403.16 488.574 1420.07L488.574 1420.08C487.04 1435.74 485.507 1451.39 483.33 1466.99C480.779 1485.27 478.924 1503.64 477.069 1522.02C475.465 1537.91 473.861 1553.79 471.807 1569.62C471.284 1573.65 471.035 1577.73 470.784 1581.83L470.784 1581.83C470.259 1590.4 469.726 1599.13 466.666 1607.99C461.076 1608.94 455.366 1608.98 449.762 1608.11C458.379 1574.87 462.426 1541.28 466.42 1508.13C466.572 1506.86 466.725 1505.6 466.877 1504.33C468.844 1488.03 470.288 1471.65 471.733 1455.27C474.087 1428.57 476.443 1401.86 481.066 1375.41C482.93 1364.75 483.763 1353.99 484.596 1343.23C485.675 1329.28 486.755 1315.34 490.077 1301.6C498.399 1267.19 501.079 1231.76 503.025 1196.71C505.897 1145.06 506.608 1093.15 503.404 1041.41C502.386 1025 498.803 1008.34 483.858 994.968C485.434 999.866 487.211 1004.55 488.94 1009.11L488.941 1009.11C492.619 1018.82 496.079 1027.94 496.925 1037.3C499.378 1064.42 499.587 1091.83 499.111 1119.1C498.555 1150.95 495.027 1182.59 491.498 1214.23C490.278 1225.17 489.058 1236.11 487.961 1247.06C484.37 1282.89 479.239 1318.51 474.108 1354.11L474.108 1354.12C471.821 1369.99 469.535 1385.85 467.385 1401.74C465.442 1416.1 463.94 1430.5 462.44 1444.89L462.44 1444.9C460.632 1462.24 458.826 1479.57 456.248 1496.8C454.615 1507.71 453.626 1518.7 452.636 1529.68C450.988 1547.97 449.34 1566.27 444.725 1584.23C444.418 1585.43 444.071 1586.64 443.72 1587.88L443.719 1587.88C441.805 1594.58 439.746 1601.8 443.176 1608.96C437.594 1609.09 432.01 1608.77 426.483 1607.98C427.211 1600.24 428.433 1592.84 429.641 1585.52C430.714 1579.02 431.775 1572.6 432.469 1566.06C433.9 1552.59 435.434 1539.12 436.968 1525.66L436.969 1525.65C438.664 1510.77 440.36 1495.89 441.918 1480.99C444.911 1452.34 448.801 1423.78 452.69 1395.23L452.691 1395.22L452.691 1395.22C454.35 1383.04 456.009 1370.86 457.598 1358.68C455.717 1366.69 453.286 1374.58 450.858 1382.46L450.858 1382.46L450.858 1382.46C447.372 1393.78 443.893 1405.07 442.061 1416.66C439.443 1433.23 435.976 1449.62 432.508 1466.01C427.996 1487.34 423.484 1508.67 420.839 1530.39C419.927 1537.88 418.823 1545.34 417.719 1552.81C414.966 1571.42 412.214 1590.02 412.449 1608.96H393.106ZM453.376 1060.71C459.549 1054.32 466.118 1048.34 473.872 1043.91C480.583 1040.07 482.42 1034.05 480.045 1027.72C478.906 1024.69 478.431 1021.34 477.955 1017.99V1017.99C476.851 1010.21 475.743 1002.4 466.352 998.424C461.351 996.305 456.521 998.191 453.096 1000.69C446.661 1005.39 439.962 1010.61 435.625 1017.09C418.441 1042.76 408.954 1071.66 399.977 1104.44C410.928 1093.6 422.121 1085.07 433.284 1076.56L433.285 1076.56C440.012 1071.44 446.729 1066.32 453.376 1060.71ZM415.757 1021.14C405.923 1044.42 396.091 1067.68 393.713 1093.23C393.465 1106.3 388.139 1115.31 382.314 1124.18C383.611 1118.28 384.831 1112.35 386.05 1106.43C392.864 1073.34 399.676 1040.25 419.86 1011.38C418.506 1014.64 417.131 1017.89 415.757 1021.14Z" fill="black"/>
<path fill-rule="evenodd" clip-rule="evenodd" d="M1458.74 1465.3C1474.6 1511.81 1482.94 1560.28 1490.44 1608.96C1495.92 1608.96 1500.31 1608.96 1505 1607.89C1501.08 1569 1492.31 1532.04 1483.56 1495.1L1483.43 1494.58C1479.31 1477.19 1473.56 1460.27 1467.81 1443.33C1466.13 1438.38 1464.45 1433.44 1462.81 1428.48C1449.5 1388.26 1435.89 1348.22 1419.14 1309.24C1410.32 1288.72 1399.51 1269.32 1388.65 1249.85C1384 1241.51 1379.69 1232.99 1375.38 1224.47C1365.96 1205.87 1356.54 1187.27 1343.62 1170.57C1342.29 1168.84 1340.89 1167.11 1339.5 1165.38C1333.65 1158.12 1327.68 1150.7 1324.93 1142.36C1313.64 1108.09 1300.71 1074.43 1287.78 1040.78C1280.24 1021.17 1269.89 1002.63 1255.01 987.483C1234.62 966.706 1207.12 959.205 1179.91 952.837C1156.96 947.466 1133.82 942.934 1110.67 938.402C1097.21 935.767 1083.75 933.133 1070.34 930.333C1036.17 923.308 1001.15 921.315 966.392 924.421C960.898 924.886 956.434 926.131 954.46 934.86C969.01 936.503 983.57 936.888 998.108 937.273C1022.33 937.914 1046.5 938.553 1070.47 945.007C1095.72 951.806 1121.46 957.183 1147.93 962.713C1160.38 965.313 1172.99 967.947 1185.79 970.779C1176.67 980.383 1176.37 989.946 1176.07 999.425C1176.02 1000.93 1175.98 1002.42 1175.9 1003.92C1175.13 1017.77 1177.29 1031.33 1179.44 1044.81C1180.93 1054.13 1182.41 1063.42 1182.92 1072.75C1185.33 1117.1 1192.52 1160.69 1199.7 1204.27C1200.16 1207.04 1200.62 1209.81 1201.07 1212.58C1204.54 1233.65 1207.06 1254.81 1209.59 1275.97C1211.84 1294.79 1214.08 1313.6 1216.99 1332.35C1221.74 1363.04 1223.46 1394.01 1225.17 1424.99C1226.34 1446.06 1227.5 1467.12 1229.63 1488.11C1231.73 1508.95 1233.25 1529.84 1234.77 1550.75C1236.18 1570.15 1237.59 1589.57 1239.47 1608.96H1251.21C1250.68 1560.36 1247.02 1511.93 1243.37 1463.5C1241.49 1438.65 1239.61 1413.8 1238.16 1388.92C1236.95 1368.27 1234.01 1347.64 1231.07 1327.01C1229.56 1316.39 1228.05 1305.78 1226.77 1295.17C1223 1263.81 1218.02 1232.65 1213.04 1201.49C1208.75 1174.63 1204.46 1147.77 1200.94 1120.79C1199.25 1107.8 1197.09 1094.86 1194.94 1081.93C1190.47 1055.08 1185.99 1028.23 1185.64 1000.86C1185.5 990.031 1189.07 981.353 1198.18 974.166C1183.56 1003.93 1189.96 1032.65 1196.33 1061.25C1198 1068.75 1199.67 1076.24 1200.96 1083.74C1202.09 1090.33 1203.48 1096.91 1204.86 1103.48C1207.64 1116.71 1210.42 1129.94 1211.16 1143.28C1211.78 1154.3 1213.88 1164.95 1215.99 1175.57C1217.46 1183.03 1218.94 1190.48 1219.89 1198.03C1222.35 1217.56 1225.55 1236.98 1228.75 1256.41C1233.74 1286.69 1238.73 1316.99 1240.92 1347.72C1242.8 1373.92 1247.87 1399.98 1252.92 1425.87C1253.17 1427.16 1253.42 1428.46 1253.67 1429.75C1256.14 1442.43 1256.62 1455.27 1257.09 1467.83C1257.12 1468.52 1257.14 1469.2 1257.17 1469.88C1257.85 1488.15 1259.59 1506.35 1261.33 1524.54C1263.6 1548.23 1265.86 1571.91 1265.8 1595.75C1265.8 1597.18 1265.69 1598.62 1265.59 1600.11C1265.42 1602.52 1265.23 1605.06 1265.44 1607.98C1269.18 1608.76 1273 1609.09 1276.81 1608.96C1279.57 1564.22 1276.4 1519.63 1272.4 1472.6C1286.45 1512.03 1293.37 1551.01 1300.4 1590.63C1301.42 1596.36 1302.44 1602.1 1303.48 1607.85C1308.9 1608.91 1314.47 1609 1319.92 1608.13C1316 1599.38 1315.35 1590.43 1314.71 1581.66C1314.3 1576.11 1313.9 1570.63 1312.68 1565.33C1311.57 1560.51 1310.48 1555.68 1309.39 1550.86C1301.56 1516.21 1293.73 1481.54 1279.38 1448.53C1278.39 1446.26 1277.32 1443.99 1276.23 1441.69C1272.48 1433.75 1268.61 1425.55 1267.94 1416.71C1266.82 1401.94 1263.84 1387.42 1260.88 1373C1260.05 1368.94 1259.21 1364.89 1258.42 1360.84C1254.85 1342.51 1252.74 1324.02 1250.62 1305.53C1248.45 1286.56 1246.28 1267.6 1242.54 1248.78C1238.84 1230.19 1235.63 1211.51 1232.41 1192.83C1227.38 1163.61 1222.35 1134.38 1215.47 1105.46C1214.82 1102.71 1214.13 1099.95 1213.43 1097.16C1210.55 1085.67 1207.55 1073.72 1206.73 1060.69C1208.38 1061.33 1209.84 1061.82 1211.14 1062.24C1213.52 1063.03 1215.35 1063.63 1216.8 1064.73L1217.82 1065.52C1249.08 1089.33 1280.42 1113.21 1304.98 1144.12C1326.37 1171.04 1345.51 1199.26 1360.9 1230.41C1366.79 1242.32 1372.91 1254.1 1379.02 1265.88C1392.16 1291.17 1405.29 1316.46 1416.13 1343C1427.83 1371.62 1437.44 1400.88 1447.04 1430.13C1450.9 1441.87 1454.75 1453.61 1458.74 1465.3ZM1215.18 1047.15C1209.02 1043.69 1204.77 1039 1203.71 1031.87C1199.22 1019.83 1199.32 1009.32 1200.83 998.867C1203.02 983.769 1213.57 979.481 1227.32 985.91C1247.25 995.224 1255.97 1013.2 1264.47 1030.7C1265.35 1032.52 1266.24 1034.35 1267.13 1036.16C1275.39 1052.84 1282.14 1070.25 1289.33 1088.81C1292.55 1097.12 1295.86 1105.66 1299.43 1114.47C1295.51 1110.88 1291.68 1107.33 1287.92 1103.85C1269.21 1086.51 1252.08 1070.65 1232.54 1057.63C1226.92 1053.89 1221.07 1050.46 1215.18 1047.15Z" fill="black"/>
<path d="M606.7 926.312C651.923 905.082 666.16 916.292 666.16 916.292C666.16 916.292 664.897 928.436 674.085 959.396C693.325 1024.2 797.785 1025.32 833.019 1021.07C870.246 1016.57 958.851 990.889 964.035 969.387C974.176 927.335 947.203 924.192 963.324 922.866C979.445 921.539 1048.44 922.095 1096.26 997.239C1098.68 1001.04 1145.53 1149.33 1093.82 1149.33C1066.63 1149.33 1025.08 1069.21 997.279 1094.62C952.93 1135.15 887.43 1170.35 806.212 1174.4C754.002 1177.01 665.471 1130.8 665.471 1130.8L615.404 1100.59C615.404 1100.59 559.957 1141.88 540.789 1131.48C515.622 1117.82 542.809 967.556 542.809 967.556C542.809 967.556 567.406 944.758 606.7 926.312Z" fill="white"/>
<path fill-rule="evenodd" clip-rule="evenodd" d="M540.523 956.753C540.523 956.753 600.625 916.901 636.985 909.656C656.499 905.768 665.306 904.355 675.62 918.293C679.399 923.398 679.898 928.744 680.376 933.869V933.869C680.445 934.607 680.513 935.341 680.591 936.069C683.275 961.187 695.242 980.84 715.806 994.77C727.332 1002.58 741.698 1006.47 755.301 1007.87C804.561 1012.94 853.925 1013.6 901.745 998.036C921.059 991.75 939.716 983.306 955.018 969.298C964.394 960.716 964.511 954.421 955.028 946.164C951.31 942.927 952.431 940.147 953.667 937.08C954.068 936.084 954.482 935.057 954.746 933.975C959.022 916.449 960.016 914.75 979.076 917.027C1008.06 920.487 1037.48 926.969 1059.46 946.177C1119.11 998.303 1119.26 1027.23 1119.63 1100.11C1119.68 1110.7 1119.74 1122.22 1119.99 1134.87C1120.22 1146.88 1113.17 1152.78 1101.41 1154.55C1078.09 1158.05 1062.32 1148.69 1050.98 1129.1C1046.38 1121.16 1041 1113.45 1033.27 1107.74C1017.36 1095.97 1007.72 1095.29 992.785 1107.68C957.411 1137.02 917.781 1158.22 873.232 1170.18C809.985 1187.15 748.364 1182.31 689.281 1154.22C671.156 1145.6 653.281 1135.66 639.409 1120.48C634.753 1115.39 628.658 1112.5 622.262 1114.01C620.667 1114.38 619.068 1114.75 617.468 1115.12L617.467 1115.12L617.465 1115.12L617.457 1115.12C602.602 1118.55 587.665 1121.99 574.778 1130.94C562.457 1139.5 548.133 1141.38 535.16 1135.66C523.062 1130.32 523.358 1117.01 524.542 1105.52C525.876 1092.58 526.78 1079.6 527.685 1066.59C529.752 1036.91 531.826 1007.11 539.031 977.485C527.329 978.753 540.523 956.753 540.523 956.753ZM671.906 1070.59C713.088 1097.95 758.597 1107.69 807.986 1107.76C857.267 1107.84 903.056 1099.05 946.953 1073.4C916.016 1055.67 920.434 1031.08 930.425 1004.08C926.691 1005.09 923.202 1005.95 919.897 1006.77L919.896 1006.77L919.895 1006.77C913.173 1008.44 907.21 1009.92 901.483 1012.02C877.796 1020.71 852.689 1023.72 828.158 1026.55C795.303 1030.34 762.157 1024.59 730.066 1016.74C713.816 1012.77 698.222 1006.21 686.396 992.213C683.901 989.261 682.119 985.883 680.332 982.495C677.834 977.76 675.327 973.006 670.85 969.376C668.211 973.929 668.555 978.088 670.694 981.697C673.152 985.845 675.549 990.043 677.947 994.243L677.947 994.243L677.947 994.243L677.947 994.243C684.972 1006.55 692.004 1018.86 700.602 1029.98C707.043 1038.32 708.089 1045.78 707.785 1056.72C692.807 1053.28 678.463 1050.2 665.475 1059.25C665.364 1063.13 667.505 1065.57 670.279 1068.72L670.28 1068.72L670.283 1068.72C670.805 1069.31 671.35 1069.93 671.906 1070.59ZM945.84 1011.76C946.535 1010.7 947.23 1009.64 947.915 1008.57C950.957 1002.98 954.999 998.553 958.944 994.229C964.613 988.018 970.083 982.024 972.101 973.13C975.501 958.14 978.568 944.061 971.591 930.975C973.692 927.25 975.854 926.512 977.916 927.059C980.428 927.727 982.945 928.384 985.46 929.041L985.461 929.042L985.465 929.043C1016.53 937.155 1047.51 945.244 1068.26 973.425C1087.14 999.068 1099.7 1026.97 1102.72 1058.7C1104.71 1079.59 1106.64 1100.5 1107.89 1121.44C1107.96 1122.71 1108.13 1124.04 1108.31 1125.4C1109.15 1131.83 1110.04 1138.73 1100.83 1141.84C1089.64 1145.61 1075.1 1141.11 1069.08 1131.71C1067.4 1129.08 1065.96 1126.29 1064.52 1123.51C1063.45 1121.44 1062.38 1119.37 1061.21 1117.36C1042.39 1085.09 1012.06 1067.26 978.139 1055.05C969.53 1051.95 958.878 1053.18 949.208 1054.29C948.903 1054.33 948.598 1054.36 948.295 1054.4C948.127 1054.42 947.959 1054.44 947.791 1054.46C937.96 1055.58 936.545 1050.93 935.395 1043.22C933.515 1030.63 939.648 1021.24 945.84 1011.76ZM540.789 1111.03C541.658 1125 544.792 1128.43 553.716 1123.26C556.213 1121.82 558.725 1120.4 561.233 1118.99L561.234 1118.99C577.647 1109.74 593.914 1100.57 604.971 1083.27C616.998 1064.46 634.382 1049.96 657.533 1043.71C663.615 1042.07 669.751 1042.1 675.905 1042.14C680.605 1042.16 685.315 1042.19 690.019 1041.47C689.224 1036.82 686.798 1033.87 684.458 1031.03C683.852 1030.29 683.251 1029.56 682.686 1028.81C661.977 1001.29 645.919 972.093 650.069 936.125C650.87 929.205 646.617 927.551 641.952 927.77C632.746 928.202 623.739 929.328 614.7 932.579C603.972 936.439 594.04 941.76 584.115 947.079L584.115 947.079C578.084 950.31 572.055 953.54 565.851 956.441C559.098 959.597 551.96 964.527 551.997 973.227C552.038 982.809 550.046 992.019 548.056 1001.22C547.117 1005.57 546.178 1009.91 545.453 1014.29C541.124 1040.44 541.011 1066.75 540.893 1094.42V1094.42C540.869 1099.9 540.845 1105.44 540.789 1111.03ZM777.032 1121.64C810.972 1126.53 843.975 1121.77 877.159 1116.56V1116.55C905.311 1109.85 929.973 1100.68 953.088 1086.67C961.99 1081.27 972.306 1082.14 983.362 1083.07C987.893 1083.45 992.548 1083.84 997.28 1083.82C981.949 1100.45 964.692 1111.23 947.652 1121.88C946.284 1122.74 944.917 1123.59 943.552 1124.45C917.906 1140.54 889.926 1152.26 860.116 1157.29C829.793 1162.41 799.503 1165.97 767.885 1161.54C733.361 1156.71 702.119 1145.95 673.509 1127.6C655.612 1116.13 638.188 1103.31 625.798 1085.24C644.512 1072.94 652.696 1073.57 669.731 1085.39C701.867 1107.68 738.785 1116.14 777.032 1121.64Z" fill="black"/>
<path d="M888.853 1432.71C888.7 1432.73 888.549 1432.77 888.403 1432.82L888.589 1432.79L888.853 1432.71Z" fill="black"/>
<path d="M996.259 1417.97C993.318 1407.92 988.963 1398.35 983.324 1389.53C976.101 1377.83 967.785 1366.85 958.487 1356.72C939.06 1336.23 917.041 1318.32 893.849 1302.28C877.137 1290.62 859.057 1281.12 840.687 1272.37C819.787 1261.97 797.446 1254.01 774.146 1251.45C762.032 1250.52 749.848 1251.27 737.939 1253.67C748.934 1254.66 759.838 1256.49 770.553 1259.15C785.442 1263.14 803.819 1270.7 819.928 1277.23C840.419 1286.21 860.644 1295.99 879.733 1307.69C909.256 1326.75 933.225 1345.66 956.486 1370.47C968.876 1384.77 976.962 1395.44 984.931 1411.01C988.624 1419.09 991.293 1427.59 992.877 1436.33C993.669 1442.43 993.603 1441.31 993.705 1444.88C993.705 1445.34 993.676 1445.8 993.656 1446.25C993.563 1447.22 993.439 1448.19 993.263 1449.14L993.251 1449.21C990.677 1460.67 984.451 1469.02 974.105 1476.5C947.753 1493.53 921.045 1502.17 889.831 1500.81C869.256 1500.02 848.101 1494.83 830.988 1490.11C809.793 1484.36 789.13 1476.8 769.223 1467.52C752.228 1459.52 735.671 1450.3 720.958 1438.56C704.317 1425.25 689.894 1413.89 675.902 1395.88C666.819 1384.07 661.562 1376.75 656.102 1362.98C655.823 1362.12 655.544 1361.27 655.266 1360.42C653.747 1355.03 654.344 1357.92 653.611 1352.15C653.769 1348.65 652.827 1344.14 656.002 1338.85C660.854 1330.31 674.292 1319.41 689.348 1314.74C696.722 1312.47 710.973 1310.22 721.848 1310.09C729.843 1309.95 737.777 1311.32 745.654 1312.55C761.431 1315.32 774.413 1319.4 790.439 1326C805.093 1331.96 819.393 1338.75 833.266 1346.36C862.413 1363 896.325 1388.62 903.721 1413.76C903.859 1414.31 903.996 1414.85 904.134 1415.4C904.149 1415.47 904.162 1415.54 904.177 1415.61C904.417 1416.84 904.592 1418.09 904.703 1419.34C904.703 1419.44 904.713 1419.54 904.712 1419.64C904.707 1419.84 904.703 1420 904.7 1420.15C904.646 1420.55 904.581 1420.96 904.525 1421.28C904.419 1421.71 904.295 1422.14 904.155 1422.57C902.709 1426.63 897.127 1430.15 888.855 1432.7C889.14 1432.65 889.273 1432.67 888.631 1432.78L888.591 1432.79C888.479 1432.82 888.371 1432.86 888.258 1432.89C888.305 1432.86 888.354 1432.84 888.405 1432.82C883.028 1433.89 877.56 1434.44 872.078 1434.47C862.587 1434.62 853.211 1432.94 844.012 1430.74C837.784 1429.31 831.674 1427.41 825.734 1425.06C818.96 1422.16 812.367 1418.86 805.991 1415.17C797.591 1410.78 783.017 1400.4 779.122 1396.85C773.246 1391.77 767.451 1386.47 762.793 1380.23C760.777 1377.23 759.943 1376.1 758.937 1372.54C758.955 1372.4 758.972 1372.27 758.987 1372.15C759.031 1372 759.076 1371.84 759.126 1371.68C759.166 1371.59 759.212 1371.49 759.271 1371.36L759.341 1371.23C759.686 1370.77 760.058 1370.32 760.454 1369.91C760.629 1369.71 760.754 1369.58 760.836 1369.5C760.924 1369.43 761.006 1369.35 761.095 1369.29C763.896 1367.41 766.958 1365.96 770.182 1364.98C774.152 1363.86 778.257 1363.29 782.382 1363.28C796.514 1363.56 806.825 1366.25 819.09 1370.93C822.066 1372.15 824.996 1373.5 827.851 1374.99C824.347 1371.87 820.633 1368.99 816.736 1366.37C803.915 1358.2 787.59 1350.77 772.086 1352.24C759.671 1353.92 752.241 1358.88 751.968 1372.27C751.782 1384.43 760.127 1394.51 768.476 1402.48C774.797 1408.52 781.58 1414.06 788.763 1419.05C799.515 1426.43 810.92 1432.8 822.835 1438.1C830.522 1441.15 838.449 1443.55 846.535 1445.29C856.135 1447.51 865.976 1448.9 875.845 1448.32C882.534 1447.96 889.322 1447.18 895.521 1444.49C920.581 1434.76 912.102 1402.5 899.285 1385.81C889.485 1371.71 876.085 1360.69 862.404 1350.53C846.575 1338.66 829.175 1329.09 811.257 1320.78C797.321 1314.45 783.219 1308.33 768.528 1303.97C755.63 1300.16 742.395 1297.6 729.006 1296.32C721.237 1295.89 713.445 1296.26 705.753 1297.43C690.304 1299.27 674.921 1304.43 663.164 1314.92C657.755 1319.24 653.309 1324.63 650.114 1330.77C646.683 1338.2 646.262 1346.65 646.804 1354.7C648.386 1373.28 658.671 1389.82 669.665 1404.38C678.493 1416.51 689.124 1427.14 700.556 1436.81C711.856 1446.31 723.156 1455.95 735.696 1463.8C761.223 1479.8 789.267 1491.51 818.007 1500.37C846.448 1508.71 875.751 1516.47 905.645 1514.64C923.98 1513.43 941.845 1508 958.352 1500.04C966.419 1495.89 974.597 1491.68 981.478 1485.68C992.047 1476.57 998.807 1463.82 1000.42 1449.96C1001.41 1439.16 999.127 1428.34 996.259 1417.97Z" fill="black"/>
<path fill-rule="evenodd" clip-rule="evenodd" d="M1114.41 1467.25C1116.36 1470.26 1118.35 1473.32 1119.21 1476.84C1120.28 1481.53 1120.47 1487.82 1116.27 1491.04C1113.66 1492.41 1110.65 1492.69 1107.72 1492.97C1107.23 1493.02 1106.74 1493.07 1106.26 1493.12C1100.99 1493.51 1095.7 1493.62 1090.42 1493.47L1090.03 1493.46C1087.22 1498.72 1084.47 1504.02 1081.92 1509.42C1083.31 1504.36 1085.07 1498.92 1087.04 1493.34C1084.34 1493.22 1081.64 1493.06 1078.94 1492.84C1079.39 1494.03 1079.85 1495.22 1080.32 1496.37C1080.95 1497.93 1081.62 1499.47 1082.3 1501.01C1082.15 1500.77 1081.99 1500.54 1081.83 1500.31L1081.83 1500.31C1081.62 1500 1081.41 1499.69 1081.2 1499.38C1079.76 1497.2 1078.4 1494.97 1077.13 1492.69C1069.11 1492.04 1061.16 1490.62 1053.41 1488.46C1052.69 1488.21 1051.94 1487.98 1051.18 1487.73C1046.22 1486.17 1040.56 1484.37 1039.01 1479.05C1037.66 1474.05 1038.72 1468.06 1043.18 1464.97C1048.9 1460.39 1054.98 1456.26 1061.34 1452.63C1060.55 1449.5 1059.95 1446.34 1059.53 1443.14C1058.82 1435.79 1057.81 1420.68 1068.48 1420.94C1072.86 1421.85 1076.36 1424.83 1079.72 1427.68C1080.24 1428.12 1080.77 1428.57 1081.28 1429C1082.97 1430.49 1084.63 1432.02 1086.25 1433.6C1087.55 1434.86 1088.83 1436.15 1090.1 1437.45C1093.89 1435.84 1097.77 1434.46 1101.74 1433.34C1104.8 1432.49 1108.12 1431.89 1111.22 1432.87C1115.01 1434.8 1115.11 1439.99 1114.73 1443.71C1114.19 1446.45 1113.25 1449.1 1111.95 1451.58C1110.83 1453.97 1109.68 1456.35 1108.5 1458.72C1110.47 1461.33 1112.34 1464.02 1114.1 1466.77L1114.24 1466.99L1114.41 1467.24L1114.41 1467.25ZM1105.65 1446.37C1103.93 1446.7 1102.23 1447.14 1100.56 1447.7C1100.43 1447.75 1100.29 1447.79 1100.15 1447.84L1100.15 1447.84C1100.02 1447.89 1099.88 1447.94 1099.75 1447.98C1100.93 1449.37 1102.11 1450.77 1103.27 1452.17C1104.11 1450.16 1104.9 1448.22 1105.65 1446.37ZM1068.43 1434.79L1068.48 1434.81C1069.82 1435.39 1071.12 1436.08 1072.34 1436.89C1074.88 1438.57 1077.26 1440.48 1079.45 1442.59C1075.21 1444.77 1071.04 1447.05 1066.9 1449.4C1065.86 1443.49 1065.37 1438.31 1065.68 1435.64C1065.69 1435.59 1065.7 1435.53 1065.71 1435.48C1065.71 1435.44 1065.72 1435.4 1065.72 1435.36C1065.74 1435.32 1065.76 1435.29 1065.77 1435.26C1065.79 1435.24 1065.8 1435.21 1065.81 1435.18C1066.1 1435.04 1066.4 1434.92 1066.7 1434.81C1066.71 1434.81 1066.72 1434.81 1066.73 1434.81C1066.74 1434.8 1066.74 1434.8 1066.75 1434.8C1067.3 1434.71 1067.87 1434.71 1068.43 1434.79ZM1065.13 1464.96C1060.4 1467.7 1055.74 1470.57 1051.28 1473.72C1057.4 1475.72 1063.69 1477.13 1070.08 1477.93C1069.12 1475.61 1068.2 1473.28 1067.32 1470.93C1066.57 1468.95 1065.84 1466.96 1065.13 1464.96ZM1074.17 1478.43C1072.58 1473.06 1071.13 1467.61 1069.81 1462.3L1069.8 1462.28C1070.73 1461.75 1071.66 1461.23 1072.58 1460.71C1078.04 1457.76 1083.51 1454.79 1089.15 1452.2C1092.49 1455.7 1095.7 1459.31 1098.81 1463.02C1096.63 1468.32 1094.37 1473.9 1092.18 1479.52C1086.13 1479.4 1080.05 1479.07 1074.17 1478.43ZM1103.38 1468.74C1101.49 1472.35 1099.55 1475.94 1097.6 1479.53C1101.9 1479.52 1106.2 1479.25 1110.47 1478.7C1110.15 1478.19 1109.85 1477.71 1109.61 1477.34C1107.63 1474.41 1105.54 1471.54 1103.38 1468.74Z" fill="black"/>
<path d="M848.611 1389.77C850.594 1396.49 852.179 1400.56 845.233 1402.19C839.825 1403.33 834.246 1402.69 828.767 1402.62C828.032 1402.61 827.689 1402.51 828.627 1402.94C831.659 1404.49 834.859 1405.7 838.164 1406.53C850.783 1409.72 855.82 1399.69 848.611 1389.77Z" fill="black"/>
<path d="M998.798 1521.9C994.072 1524.42 988.924 1526.01 983.854 1527.7C975.719 1530.2 971.192 1531.39 962.647 1533.3C943.448 1537.11 923.881 1538.76 904.314 1538.2C881.684 1537.22 859.252 1533.54 837.49 1527.26C819.556 1522.24 791.807 1515.49 765.231 1504.98C763.304 1504.22 761.382 1503.45 759.465 1502.68C777.938 1513.1 796.612 1523.22 815.818 1532.23C833.266 1540.61 852 1545.81 871.096 1548.75C889.804 1551.94 908.82 1552.95 927.761 1551.74C938.135 1551.06 948.592 1550.14 958.661 1547.45C972.401 1543.62 985.848 1538.04 997.699 1530.05C1006.36 1523.71 1012.75 1514.95 1019.1 1506.44C1012.53 1512.09 1006.52 1517.65 998.798 1521.9Z" fill="black"/>
<path d="M977.542 1315.26C976.128 1314.5 974.735 1313.7 973.342 1312.91C975.813 1315.2 978.198 1317.58 980.56 1319.99C989.786 1329.3 998.14 1339.43 1005.52 1350.26C1015.8 1364.28 1021.65 1374.31 1031.07 1391.26C1022.47 1360.25 1008 1329.77 977.542 1315.26Z" fill="black"/>
<path d="M604.635 1319.95C609.852 1311.58 623.501 1295.1 633.681 1288.55C642.266 1282.64 651.36 1277.03 661.418 1274.06C666.687 1272.48 675.908 1271.77 682.601 1271.62C674.901 1269.74 667.001 1267.9 659.023 1268.73C648.757 1269.92 638.876 1273.88 629.928 1278.95C616.277 1286.96 605.943 1299.57 597.933 1313.02C590.277 1326.58 586.807 1342.45 587.008 1357.96C587.794 1377.6 594.901 1396.51 605.314 1413.03C616.131 1429.23 629.664 1443.41 643.373 1457.17C648.327 1462.07 653.341 1466.91 658.417 1471.68C652.984 1465.36 647.706 1458.91 642.582 1452.32C632.015 1438.76 622.163 1424.66 613.067 1410.07C598.556 1386.6 591.94 1366.43 594.584 1347.55C596.295 1337.36 597.621 1331.49 604.635 1319.95Z" fill="black"/>
<path fill-rule="evenodd" clip-rule="evenodd" d="M720.666 1509.14C718.898 1506.07 716.969 1503.1 714.887 1500.23C714.701 1499.98 714.509 1499.74 714.317 1499.5L714.317 1499.5L714.317 1499.5C714.149 1499.29 713.981 1499.08 713.815 1498.87C714.265 1498.02 714.745 1497.18 715.225 1496.35C716.479 1494.16 717.735 1491.97 718.47 1489.56C719.264 1486.07 719.289 1481.36 716.157 1479.03C714.737 1478.57 713.208 1478.58 711.795 1479.06C709.319 1479.62 706.896 1480.4 704.555 1481.39C703.136 1481.96 701.738 1482.58 700.355 1483.23C693.65 1476.16 686.56 1469.47 679.117 1463.18C678.601 1462.79 678.104 1462.36 677.605 1461.93L677.605 1461.93L677.605 1461.93C676.533 1461.01 675.456 1460.08 674.179 1459.5C670.725 1458.14 669.16 1462.66 668.86 1465.34C668.321 1471.73 669.711 1478.09 671.075 1484.32L671.075 1484.32L671.075 1484.32L671.075 1484.32C671.184 1484.82 671.293 1485.32 671.401 1485.82C672.475 1490.14 673.737 1494.41 675.101 1498.64C673.751 1499.58 672.402 1500.51 671.054 1501.43L670.406 1501.89L670.406 1501.89C667.111 1504.22 663.815 1506.54 660.581 1508.95C657.546 1511.21 654.17 1513.78 653.552 1517.77C652.866 1521.3 653.126 1526.05 656.452 1528.16C660.117 1529.44 664.033 1529.75 667.903 1530.04C668.704 1530.11 669.504 1530.17 670.298 1530.24C675.608 1530.57 680.933 1530.6 686.246 1530.33C688.607 1537 690.969 1543.67 693.567 1550.26C693.849 1551.17 694.309 1552.01 694.92 1552.74C694.214 1551.48 693.94 1550.07 693.666 1548.67L693.666 1548.67L693.666 1548.67L693.666 1548.67C693.546 1548.05 693.427 1547.44 693.271 1546.84C692.797 1544.66 692.32 1542.47 691.843 1540.29L691.843 1540.29L691.842 1540.29L691.842 1540.29L691.842 1540.28L691.841 1540.28L691.841 1540.28C691.103 1536.9 690.366 1533.53 689.637 1530.15C691.681 1530.01 693.724 1529.86 695.764 1529.68C694.594 1534.34 693.692 1539.06 693.064 1543.82C694.488 1538.93 696.205 1534.14 698.204 1529.45C700.699 1529.21 703.19 1528.95 705.678 1528.67C706.711 1528.55 707.745 1528.44 708.78 1528.32L708.78 1528.32L708.78 1528.32L708.783 1528.32L708.783 1528.32L708.783 1528.32L708.783 1528.32C711.388 1528.03 713.995 1527.75 716.578 1527.29C717.808 1527.09 719.008 1526.74 720.154 1526.25C721.24 1525.49 722.087 1524.44 722.595 1523.22C724.691 1518.55 723.417 1513.24 720.666 1509.14ZM676.734 1476.21C681.467 1480.12 685.995 1484.27 690.299 1488.64C687.12 1490.55 684.007 1492.58 680.928 1494.66C679.223 1487.93 677.691 1481.51 676.734 1476.21ZM679.182 1510.56C676.38 1512.44 673.601 1514.36 670.847 1516.31V1516.31C674.334 1516.51 677.825 1516.58 681.318 1516.53C680.604 1514.54 679.892 1512.55 679.182 1510.56ZM686.506 1516.37C685.773 1513.42 684.983 1510.35 684.175 1507.23C685.741 1506.2 687.31 1505.17 688.881 1504.15C692.006 1502.24 695.673 1500.03 699.364 1497.98C701.025 1499.78 702.752 1501.72 704.435 1503.69C703.691 1505.56 702.957 1507.44 702.262 1509.33C701.497 1511.32 700.773 1513.33 700.07 1515.35C695.553 1515.81 691.032 1516.17 686.506 1516.37V1516.37ZM706.256 1512.89C705.921 1513.53 705.595 1514.16 705.273 1514.78V1514.78C707.696 1514.49 710.114 1514.19 712.527 1513.88C711.404 1512.3 710.042 1510.51 708.527 1508.62C708.341 1508.97 708.154 1509.32 707.967 1509.66C707.394 1510.74 706.82 1511.81 706.256 1512.89Z" fill="black"/>
<path fill-rule="evenodd" clip-rule="evenodd" d="M966.477 1243.74C965.256 1241.78 963.463 1240.24 961.341 1239.33C958.712 1237.99 956.041 1236.72 953.366 1235.49C953.587 1221.56 953.584 1207.62 952.977 1193.7C952.746 1191.78 951.853 1188.3 949.303 1189.13C947.793 1190.39 946.749 1192.27 945.727 1194.11C945.204 1195.05 944.687 1195.98 944.116 1196.82C938.873 1205.67 932.744 1214.48 926.156 1223.52C916.589 1219.43 906.947 1215.53 897.194 1211.91C893.035 1210.37 888.871 1208.85 884.667 1207.44C884.053 1207.29 883.426 1207.07 882.793 1206.85C881.039 1206.23 879.237 1205.6 877.515 1206.41C873.247 1209.69 873.715 1216.58 875.789 1221.02C878.339 1225.7 882.006 1229.66 885.613 1233.54L885.783 1233.73C891.218 1239.46 897.017 1244.84 902.866 1250.15C903.361 1250.6 903.859 1251.04 904.356 1251.49C904.737 1251.83 905.118 1252.17 905.498 1252.51C901.365 1255.09 897.227 1257.66 893.086 1260.22C892.2 1260.82 891.273 1261.37 890.344 1261.92C888.351 1263.1 886.35 1264.29 884.733 1265.92C883.436 1267.94 883.455 1270.54 884.781 1272.54C885.466 1273.14 886.379 1273.4 887.274 1273.25C888.817 1273.21 890.355 1273.05 891.874 1272.77C897.013 1271.93 902.095 1270.79 907.176 1269.65L907.176 1269.65L907.176 1269.65L907.176 1269.65C908.883 1269.27 910.59 1268.89 912.298 1268.52L921.18 1266.52C924.537 1269.49 927.899 1272.45 931.267 1275.42C931.998 1275.98 932.873 1276.75 933.844 1277.61C938.025 1281.32 943.995 1286.62 948.017 1283.16C951.392 1279.95 951.774 1275 952.124 1270.47C952.184 1269.69 952.244 1268.92 952.317 1268.18C952.51 1265.33 952.652 1262.48 952.767 1259.63C954.843 1259.22 956.921 1258.81 959.001 1258.42C959.462 1258.3 959.933 1258.21 960.405 1258.11C961.818 1257.82 963.247 1257.53 964.49 1256.81C968.413 1253.93 968.304 1247.83 966.477 1243.74ZM946.471 1230.99V1230.99L946.452 1232.35C943.364 1230.98 940.27 1229.62 937.169 1228.28C939.149 1226.36 941.037 1224.35 942.832 1222.27C939.906 1223.63 937.102 1225.25 934.449 1227.09C933.83 1226.82 933.211 1226.55 932.591 1226.28C931.891 1225.97 931.189 1225.67 930.487 1225.37L930.486 1225.37L930.485 1225.37C930.004 1225.17 929.524 1224.96 929.045 1224.75C935.51 1218.63 941.515 1212.04 947.011 1205.03C946.725 1212.4 946.599 1221.61 946.471 1230.99ZM891.47 1223.93C893.67 1226.2 895.864 1228.37 897.67 1230.03C905.972 1237.82 914.448 1245.42 922.976 1252.96C925.733 1252.11 928.502 1251.29 931.291 1250.54C936.218 1249.17 941.207 1248.05 946.207 1247.02C946.208 1246.96 946.21 1246.91 946.211 1246.86L946.211 1246.86C946.215 1246.74 946.218 1246.62 946.218 1246.49C940.488 1243.9 934.691 1241.44 928.9 1238.97L928.899 1238.97L928.899 1238.97C927.726 1238.48 926.552 1237.98 925.379 1237.48C923.583 1238.57 921.726 1239.56 919.816 1240.44C920.951 1239.13 922.134 1237.86 923.34 1236.61C921.678 1235.9 920.021 1235.18 918.368 1234.46L918.345 1234.45C918.249 1234.53 918.153 1234.62 918.057 1234.7C917.905 1234.83 917.752 1234.97 917.597 1235.1C917.719 1234.94 917.838 1234.78 917.958 1234.61L917.958 1234.61L917.959 1234.61L918.143 1234.37C909.313 1230.75 900.453 1227.16 891.47 1223.93ZM896.585 1262.38C899.799 1259.31 902.969 1256.2 906.096 1253.04C907.603 1254.4 909.112 1255.76 910.624 1257.11C905.918 1258.79 901.243 1260.56 896.585 1262.38ZM935.008 1263.44L934.907 1263.46C935.529 1264.01 936.152 1264.55 936.776 1265.1C937.047 1265.29 937.399 1265.6 937.83 1265.97C939.259 1267.2 941.548 1269.17 944.545 1270.36C944.705 1270.38 944.867 1270.39 945.028 1270.4C945.326 1267.83 945.556 1264.67 945.738 1261.08C942.158 1261.85 938.583 1262.64 935.008 1263.44Z" fill="black"/>
<path d="M753.289 438.931C757.265 441.216 763.271 442.619 759.989 447.916C757.041 452.675 749.457 448.285 746.658 446.44C741.138 442.801 731.12 437.759 716.224 428.887C711.704 426.195 699.383 433.801 743.31 456.039C747.41 458.114 762.41 474.148 731.61 463.069C700.671 451.941 692.588 447.103 690.303 450.332C684.526 458.5 692.496 463.665 719.093 484.246C723.115 487.358 727.581 489.864 731.805 492.704C735.24 495.014 738.274 498.084 735.413 502.138C732.28 506.578 728.65 503.238 725.413 501.338C692.413 481.974 682.492 478.053 676.158 477.138C671.807 476.512 630.676 469.714 706.619 514.009C712.193 517.26 721.157 519.035 717.446 530.224C700.586 527.473 686.596 518.652 672.296 510.937C663.007 505.925 654.516 499.437 645.618 493.695C642.298 491.551 651.535 497.257 646.818 501.97C643.296 505.492 653.162 515.639 662.359 521.289C673.928 528.397 686.102 534.519 698.024 541.05C701.799 543.118 706.681 545.372 704.672 550.367C702.254 556.378 697.36 552.761 693.886 550.958C679.994 543.752 666.047 536.6 652.577 528.658C644.941 524.152 650.986 563.564 689.884 569.923C691.399 570.191 692.742 571.054 693.616 572.32C694.489 573.585 694.82 575.148 694.534 576.659C693.646 580.959 689.819 581.191 686.308 580.206C680.601 578.606 674.831 577.306 669.7 573.875C661.1 568.136 655.43 571.616 651.779 580.352C647.266 591.152 648.987 602.093 650.968 613.019C651.938 618.372 653.768 623.701 650.146 628.553C646.22 629.533 645.184 626.845 644.446 624.501C634.131 591.494 612.172 566.578 588.613 542.501C571.171 524.674 570.181 501.79 570.198 478.279C570.215 455.984 578.474 435.834 583.605 414.916C590.448 387.023 599.13 359.805 599.939 330.503C600.47 311.252 608.609 293.194 622.513 279.02C656.236 244.639 692.613 213.184 737.813 195.182C770.846 182.027 805.264 172.922 841.486 171.382C885.434 169.515 927.886 175.821 967.722 193.837C993.065 205.297 1016.4 220.913 1032.76 244.829C1043.31 260.249 1061.06 265.814 1076.35 274.499C1117.77 298.031 1154.95 326.282 1180.97 367.02C1198.29 394.153 1202.36 423.203 1187.75 452.602C1176.21 475.833 1153.63 479.702 1130.4 481.041C1080.08 483.941 1033.79 470.98 991.385 444.449C976.543 435.164 962.079 441.238 947.259 441.808C912.896 443.13 878.128 449.126 844.185 442.167C750.926 423.038 743.383 433.231 753.289 438.931Z" fill="black"/>
<path d="M892.423 822.511C889.823 810.279 889.535 797.103 870.762 803.789C868.225 804.689 865.787 800.068 867.652 797.147C872.134 790.124 878.431 785.237 887.314 786.247C897.949 787.453 908.19 796.825 907.378 805.74C906.64 813.828 905.255 823.107 892.423 822.511Z" fill="black"/>
<path d="M1000.76 708.612C992.1 725.077 967.439 734.299 952.277 727.472C948.027 725.558 946.111 721.723 945.341 717.419C944.834 714.795 946.156 712.158 948.563 710.995C953.155 709.03 954.378 713.295 957.171 715.753C964.142 721.883 970.19 716.525 976.242 712.397C981.996 708.472 985.318 703.856 980.474 697.738C970.042 684.56 965.689 668.495 958.674 653.71C955.584 647.197 953.692 640.193 954.893 632.741C955.427 629.423 956.779 627.158 960.507 627.147C963.26 627.139 965.54 627.879 966.387 630.862C973.86 657.185 989.701 679.532 1001.04 704.016C1001.51 705.02 1000.93 706.511 1000.76 708.612Z" fill="black"/>
<path fill-rule="evenodd" clip-rule="evenodd" d="M982.149 563.062C1030.01 528.003 1088.51 547.497 1106.35 600.062C1117.78 633.743 1103.21 678.304 1062.21 693.149C1020.63 708.207 984.384 694.69 963.971 656.814C959.257 648.066 957.243 638.179 956.395 628.766C955.357 617.254 950.713 611.666 939.741 610.24C927.293 608.62 919.199 613.808 915.223 625.551C913.918 629.406 913.179 633.361 912.436 637.337L912.435 637.338C911.561 642.018 910.68 646.729 908.865 651.344C887.699 705.121 819.585 716.095 779.896 673.974C771.406 664.964 766.708 653.156 763.052 641.414C758.14 625.631 748.542 615.865 732.626 610.506C712.858 603.851 693.278 596.635 673.698 589.419L673.698 589.419L673.698 589.418C662.603 585.33 651.508 581.24 640.378 577.253C634.731 575.23 628.696 572.885 631.706 566.043C633.932 560.977 637.655 562.604 641.398 564.24L641.398 564.24C642.53 564.736 643.665 565.232 644.761 565.543C661.955 570.416 678.542 576.982 695.125 583.546C711.656 590.09 728.183 596.632 745.306 601.495C755.761 604.464 764.262 599.168 767.806 590.36C779.38 561.58 802.933 547.515 830.815 545.818C865.362 543.718 893.533 558.67 907.852 592.985C908.728 595.084 909.862 597.076 911.01 599.094C911.553 600.047 912.098 601.006 912.622 601.985C927.794 595.752 942.546 596.185 958.182 602.612C961.851 586.826 970.62 574.584 982.149 563.062ZM858.841 682.438C883.088 672.425 898.872 654.944 901.841 628.645C907.423 579.245 859.724 545.385 812.592 563.406C776.26 577.297 760.692 625.421 784.917 658.539C803.266 683.619 827.726 689.821 858.841 682.438ZM1043.6 558.076C1063.09 559.739 1077.25 573.213 1088.32 589.145C1102.46 612.796 1099.64 644.408 1077.21 668.191C1062.51 683.784 1029.34 691.394 1007.02 681.11C982.13 669.642 965.502 645.396 969.421 615.401C975.322 570.242 1009.35 555.154 1043.6 558.076Z" fill="black"/>
<path d="M821.117 537.064C844.669 536.71 866.451 528.101 889.228 531.194C907.362 533.656 925.476 535.251 943.773 532.062C950.407 530.905 955.354 534.037 956.862 544.187C958.3 530.568 970.205 531.305 973.937 532.887C989.423 539.465 1004.14 533.987 1018.8 532.427C1038.73 530.306 1067.27 542.978 1077.06 560.766C1078.39 562.929 1079.88 564.99 1081.52 566.934C1084.3 570.572 1088.77 574.105 1084.43 579.047C1080.38 583.647 1075.3 580.747 1071.52 578.666C1063.01 573.991 1054.8 568.792 1046.94 563.099C1040.74 558.612 1034.8 557.78 1027.84 560.735C1015.37 566.035 1002.5 566.543 989.032 565.142C974.632 563.642 959.514 568.542 945.97 567.033C924.526 564.633 902.785 570.505 881.846 563.625C873.391 560.847 865.082 556.714 856.677 563.757C855.8 564.492 853.967 565.096 853.096 564.678C840.761 558.767 828.745 564.742 816.681 564.802C806.499 564.853 796.544 567.802 786.433 566.409C782.554 565.874 777.233 568.409 775.406 562.779C773.384 556.553 779.385 554.629 782.856 552.479C791.412 547.179 800.037 541.723 810.725 541.119C813.902 540.941 816.958 538.689 821.117 537.064Z" fill="black"/>
</svg>
