<svg xmlns="http://www.w3.org/2000/svg" version="1.1" xmlns:xlink="http://www.w3.org/1999/xlink" xmlns:svgjs="http://svgjs.dev/svgjs" width="1000" height="623" viewBox="0 0 1000 623"><g transform="matrix(1,0,0,1,-0.6060606060606233,0.2522267206477409)"><svg viewBox="0 0 396 247" data-background-color="#ffffff" preserveAspectRatio="xMidYMid meet" height="623" width="1000" xmlns="http://www.w3.org/2000/svg" xmlns:xlink="http://www.w3.org/1999/xlink"><defs></defs><g id="tight-bounds" transform="matrix(1,0,0,1,0.2400000000000091,-0.09999999999999432)"><svg viewBox="0 0 395.52 247.2" height="247.2" width="395.52"><g><svg></svg></g><g><svg viewBox="0 0 395.52 247.2" height="247.2" width="395.52"><g transform="matrix(1,0,0,1,75.54432,93.27374204838362)"><svg viewBox="0 0 244.43135999999998 60.65251590323273" height="60.65251590323273" width="244.43135999999998"><g><svg viewBox="0 0 244.43135999999998 60.65251590323273" height="60.65251590323273" width="244.43135999999998"><g><svg viewBox="0 0 244.43136 60.65251590323274" height="60.65251590323273" width="244.43135999999998"><g><svg viewBox="0 0 244.43136 60.65251590323274" height="60.65251590323274" width="244.43136"><g><svg viewBox="0 0 244.43136 60.65251590323274" height="60.65251590323274" width="244.43136"><g><svg viewBox="0 0 244.43136 60.65251590323274" height="60.65251590323274" width="244.43136"><g transform="matrix(1,0,0,1,0,0)"><svg width="244.43136" viewBox="3.0346152782440186 -38 198.15538024902344 48.79999923706055" height="60.65251590323274" data-palette-color="#eee"><g class="undefined-text-0" data-fill-palette-color="primary" id="text-0"><path d="M14.05 0.25L14.05 0.25Q11.1 0.25 8.2-0.75 5.3-1.75 3.5-3.75L3.5-3.75Q2.95-4.35 3.05-5.1 3.15-5.85 3.8-6.4L3.8-6.4Q4.5-6.9 5.25-6.8 6-6.7 6.5-6.15L6.5-6.15Q7.7-4.75 9.68-4 11.65-3.25 14.05-3.25L14.05-3.25Q17.75-3.25 19.4-4.53 21.05-5.8 21.1-7.6L21.1-7.6Q21.1-9.4 19.4-10.58 17.7-11.75 13.8-12.4L13.8-12.4Q8.75-13.2 6.4-15.2 4.05-17.2 4.05-19.95L4.05-19.95Q4.05-22.5 5.4-24.2 6.75-25.9 9-26.75 11.25-27.6 13.95-27.6L13.95-27.6Q17.3-27.6 19.73-26.45 22.15-25.3 23.65-23.35L23.65-23.35Q24.15-22.7 24.05-22 23.95-21.3 23.25-20.85L23.25-20.85Q22.65-20.5 21.88-20.63 21.1-20.75 20.55-21.35L20.55-21.35Q19.3-22.8 17.65-23.48 16-24.15 13.85-24.15L13.85-24.15Q11.1-24.15 9.45-23.03 7.8-21.9 7.8-20.2L7.8-20.2Q7.8-19.05 8.43-18.2 9.05-17.35 10.58-16.7 12.1-16.05 14.85-15.6L14.85-15.6Q18.6-15 20.78-13.83 22.95-12.65 23.88-11.08 24.8-9.5 24.8-7.65L24.8-7.65Q24.8-5.3 23.43-3.53 22.05-1.75 19.63-0.75 17.2 0.25 14.05 0.25ZM43.35 0.3L43.35 0.3Q39.8 0.3 37-1.18 34.2-2.65 32.57-5.5 30.95-8.35 30.95-12.45L30.95-12.45 30.95-25.45Q30.95-26.25 31.5-26.8 32.05-27.35 32.85-27.35L32.85-27.35Q33.7-27.35 34.25-26.8 34.8-26.25 34.8-25.45L34.8-25.45 34.8-12.45Q34.8-9.35 35.97-7.35 37.15-5.35 39.17-4.35 41.2-3.35 43.75-3.35L43.75-3.35Q46.2-3.35 48.17-4.3 50.15-5.25 51.3-6.9 52.45-8.55 52.45-10.65L52.45-10.65 55.2-10.65Q55.05-7.5 53.47-5.03 51.9-2.55 49.25-1.13 46.6 0.3 43.35 0.3ZM54.35 0L54.35 0Q53.5 0 52.97-0.53 52.45-1.05 52.45-1.95L52.45-1.95 52.45-25.45Q52.45-26.3 52.97-26.83 53.5-27.35 54.35-27.35L54.35-27.35Q55.2-27.35 55.75-26.83 56.3-26.3 56.3-25.45L56.3-25.45 56.3-1.95Q56.3-1.05 55.75-0.53 55.2 0 54.35 0ZM84.4 0L84.4 0Q83.8 0 83.42-0.2 83.05-0.4 82.65-0.9L82.65-0.9 74-11.9 72.5-13.2 63.8-24.25Q63.25-24.9 63.27-25.6 63.3-26.3 63.75-26.83 64.2-27.35 65.05-27.35L65.05-27.35Q65.89-27.35 66.5-26.75L66.5-26.75 74.9-16 76.25-14.9 85.55-3Q86.2-2.2 86.09-1.5 86-0.8 85.47-0.4 84.95 0 84.4 0ZM64.59 0L64.59 0Q63.8 0 63.32-0.5 62.84-1 62.82-1.7 62.8-2.4 63.34-3.05L63.34-3.05 72.55-14.55 74.7-11.7 65.95-0.6Q65.5 0 64.59 0ZM85.34-24.2L76.3-13 73.84-15.5 82.5-26.45Q82.84-26.95 83.27-27.15 83.7-27.35 84.15-27.35L84.15-27.35Q85-27.35 85.45-26.83 85.9-26.3 85.87-25.58 85.84-24.85 85.34-24.2L85.34-24.2ZM95.44 0L95.44 0Q94.54 0 94.02-0.53 93.49-1.05 93.49-1.95L93.49-1.95 93.49-25.4Q93.49-26.3 94.02-26.83 94.54-27.35 95.44-27.35L95.44-27.35Q96.29-27.35 96.82-26.83 97.34-26.3 97.34-25.4L97.34-25.4 97.34-1.95Q97.34-1.05 96.82-0.53 96.29 0 95.44 0ZM95.39-32.55L95.39-32.55Q94.29-32.55 93.49-33.35 92.69-34.15 92.69-35.3L92.69-35.3Q92.69-36.55 93.52-37.27 94.34-38 95.44-38L95.44-38Q96.49-38 97.32-37.27 98.14-36.55 98.14-35.3L98.14-35.3Q98.14-34.15 97.34-33.35 96.54-32.55 95.39-32.55ZM119.59 0.25L119.59 0.25Q115.59 0.25 112.44-1.55 109.29-3.35 107.49-6.5 105.69-9.65 105.69-13.65L105.69-13.65Q105.69-17.7 107.49-20.85 109.29-24 112.44-25.8 115.59-27.6 119.59-27.6L119.59-27.6Q123.59-27.6 126.72-25.8 129.84-24 131.64-20.85 133.44-17.7 133.49-13.65L133.49-13.65Q133.49-9.65 131.67-6.5 129.84-3.35 126.72-1.55 123.59 0.25 119.59 0.25ZM119.59-3.25L119.59-3.25Q122.49-3.25 124.79-4.6 127.09-5.95 128.39-8.3 129.69-10.65 129.69-13.65L129.69-13.65Q129.69-16.65 128.39-19.03 127.09-21.4 124.79-22.75 122.49-24.1 119.59-24.1L119.59-24.1Q116.69-24.1 114.39-22.75 112.09-21.4 110.77-19.03 109.44-16.65 109.44-13.65L109.44-13.65Q109.44-10.65 110.77-8.3 112.09-5.95 114.39-4.6 116.69-3.25 119.59-3.25ZM164.44 0L164.44 0Q163.59 0 163.04-0.55 162.49-1.1 162.49-1.9L162.49-1.9 162.49-14.9Q162.49-18 161.31-20 160.14-22 158.11-23 156.09-24 153.54-24L153.54-24Q151.09-24 149.11-23.05 147.14-22.1 145.99-20.45 144.84-18.8 144.84-16.7L144.84-16.7 142.09-16.7Q142.19-19.85 143.79-22.33 145.39-24.8 148.04-26.23 150.69-27.65 153.94-27.65L153.94-27.65Q157.49-27.65 160.29-26.18 163.09-24.7 164.71-21.85 166.34-19 166.34-14.9L166.34-14.9 166.34-1.9Q166.34-1.1 165.79-0.55 165.24 0 164.44 0ZM142.94 0L142.94 0Q142.04 0 141.51-0.53 140.99-1.05 140.99-1.9L140.99-1.9 140.99-25.4Q140.99-26.3 141.51-26.83 142.04-27.35 142.94-27.35L142.94-27.35Q143.79-27.35 144.31-26.83 144.84-26.3 144.84-25.4L144.84-25.4 144.84-1.9Q144.84-1.05 144.31-0.53 143.79 0 142.94 0ZM186.89 0.25L186.89 0.25Q182.94 0.25 179.89-1.53 176.84-3.3 175.11-6.45 173.39-9.6 173.39-13.65L173.39-13.65Q173.39-17.75 175.19-20.9 176.99-24.05 180.14-25.83 183.28-27.6 187.28-27.6L187.28-27.6Q191.34-27.6 194.46-25.83 197.59-24.05 199.36-20.9 201.14-17.75 201.19-13.65L201.19-13.65 198.94-12.45Q198.94-8.75 197.39-5.88 195.84-3 193.11-1.38 190.39 0.25 186.89 0.25ZM187.39 10.8L187.39 10.8Q183.44 10.8 180.44 9.33 177.44 7.85 175.49 5.3L175.49 5.3Q174.94 4.7 175.01 4 175.09 3.3 175.74 2.85L175.74 2.85Q176.39 2.4 177.19 2.55 177.99 2.7 178.44 3.3L178.44 3.3Q179.89 5.1 182.16 6.2 184.44 7.3 187.44 7.3L187.44 7.3Q190.24 7.3 192.49 5.95 194.74 4.6 196.06 2.15 197.39-0.3 197.39-3.6L197.39-3.6 197.39-11.2 198.84-14.1 201.19-13.65 201.19-3.45Q201.19 0.6 199.39 3.83 197.59 7.05 194.49 8.93 191.39 10.8 187.39 10.8ZM187.28-3.25L187.28-3.25Q190.24-3.25 192.51-4.58 194.79-5.9 196.09-8.25 197.39-10.6 197.39-13.65L197.39-13.65Q197.39-16.7 196.09-19.07 194.79-21.45 192.51-22.78 190.24-24.1 187.28-24.1L187.28-24.1Q184.34-24.1 182.03-22.78 179.74-21.45 178.44-19.07 177.14-16.7 177.14-13.65L177.14-13.65Q177.14-10.6 178.44-8.25 179.74-5.9 182.03-4.58 184.34-3.25 187.28-3.25Z" fill="#eee" data-fill-palette-color="primary"></path></g></svg></g></svg></g></svg></g></svg></g></svg></g></svg></g></svg></g><g><path d="M244.431 168.245A122.216 122.216 0 1 1 244.431 78.955L238.962 78.955A116.746 116.746 0 1 0 238.962 168.245L244.431 168.245" fill="#eee" stroke="transparent" data-fill-palette-color="tertiary"></path></g></svg></g></svg><rect width="395.52" height="247.2" fill="none" stroke="none" visibility="hidden"></rect></g></svg></g></svg>